<svg xmlns="http://www.w3.org/2000/svg" xmlns:xlink="http://www.w3.org/1999/xlink" width="500" zoomAndPan="magnify" viewBox="0 0 375 374.999991" height="500" preserveAspectRatio="xMidYMid meet" version="1.0"><defs><g/><clipPath id="f112e2846f"><path d="M 181.113281 121 L 274 121 L 274 223 L 181.113281 223 Z M 181.113281 121 " clip-rule="nonzero"/></clipPath><clipPath id="a215660d85"><path d="M 153 92 L 224 92 L 224 241.882812 L 153 241.882812 Z M 153 92 " clip-rule="nonzero"/></clipPath></defs><rect x="-37.5" width="450" fill="#ffffff" y="-37.499999" height="449.999989" fill-opacity="1"/><rect x="-37.5" width="450" fill="#ffffff" y="-37.499999" height="449.999989" fill-opacity="1"/><g clip-path="url(#f112e2846f)"><path fill="#403c3c" d="M 247.554688 212.546875 C 242.523438 216.152344 231.644531 223.96875 218.125 222.1875 C 197.160156 219.445312 181.179688 195.164062 181.144531 172.296875 C 181.117188 153.132812 192.28125 128.867188 215.722656 122.96875 C 239.851562 116.898438 264.960938 133.316406 271.765625 155.964844 C 281.269531 187.59375 249.082031 211.453125 247.554688 212.546875 Z M 247.554688 212.546875 " fill-opacity="1" fill-rule="nonzero"/></g><g fill="#272626" fill-opacity="1"><g transform="translate(80.312307, 256.240471)"><g><path d="M 7.4375 -0.25 L 7.375 -0.25 C 7.164062 -0.25 7 -0.335938 6.875 -0.515625 C 6.75 -0.679688 6.726562 -0.867188 6.8125 -1.078125 C 7.1875 -2.078125 7.601562 -3.273438 8.0625 -4.671875 C 8.53125 -6.078125 9 -7.519531 9.46875 -9 C 9.5 -9.125 9.476562 -9.234375 9.40625 -9.328125 C 9.34375 -9.421875 9.25 -9.460938 9.125 -9.453125 C 7.1875 -9.234375 5.378906 -9.613281 3.703125 -10.59375 C 2.929688 -11.050781 2.285156 -11.625 1.765625 -12.3125 C 1.253906 -13.007812 0.882812 -13.773438 0.65625 -14.609375 C 0.4375 -15.453125 0.378906 -16.3125 0.484375 -17.1875 C 0.640625 -18.59375 1.164062 -19.9375 2.0625 -21.21875 C 2.96875 -22.5 4.175781 -23.660156 5.6875 -24.703125 C 7.207031 -25.742188 8.992188 -26.613281 11.046875 -27.3125 C 12.816406 -27.925781 14.625 -28.265625 16.46875 -28.328125 C 18.3125 -28.390625 20.070312 -28.1875 21.75 -27.71875 C 23.4375 -27.25 24.9375 -26.53125 26.25 -25.5625 C 27.414062 -24.769531 28.328125 -23.738281 28.984375 -22.46875 C 29.640625 -21.207031 29.953125 -19.878906 29.921875 -18.484375 C 29.835938 -16.796875 29.484375 -15.226562 28.859375 -13.78125 C 28.234375 -12.34375 27.40625 -11.015625 26.375 -9.796875 C 25.351562 -8.578125 24.191406 -7.476562 22.890625 -6.5 C 21.597656 -5.53125 20.242188 -4.671875 18.828125 -3.921875 C 17.410156 -3.179688 16.003906 -2.546875 14.609375 -2.015625 C 13.210938 -1.492188 11.894531 -1.082031 10.65625 -0.78125 C 9.414062 -0.488281 8.34375 -0.3125 7.4375 -0.25 Z M 10.828125 -9.265625 C 10.441406 -8.003906 10.046875 -6.75 9.640625 -5.5 C 9.234375 -4.25 8.847656 -3.117188 8.484375 -2.109375 C 8.441406 -1.992188 8.457031 -1.882812 8.53125 -1.78125 C 8.625 -1.6875 8.734375 -1.65625 8.859375 -1.6875 C 9.953125 -1.875 11.1875 -2.1875 12.5625 -2.625 C 13.945312 -3.070312 15.375 -3.640625 16.84375 -4.328125 C 18.3125 -5.023438 19.726562 -5.84375 21.09375 -6.78125 C 22.46875 -7.71875 23.71875 -8.773438 24.84375 -9.953125 C 25.96875 -11.140625 26.867188 -12.445312 27.546875 -13.875 C 28.234375 -15.300781 28.609375 -16.851562 28.671875 -18.53125 C 28.691406 -19.738281 28.421875 -20.875 27.859375 -21.9375 C 27.296875 -23.007812 26.507812 -23.890625 25.5 -24.578125 C 24.3125 -25.472656 22.9375 -26.132812 21.375 -26.5625 C 19.820312 -26.988281 18.191406 -27.171875 16.484375 -27.109375 C 14.773438 -27.046875 13.09375 -26.726562 11.4375 -26.15625 C 9.550781 -25.507812 7.898438 -24.710938 6.484375 -23.765625 C 5.078125 -22.828125 3.960938 -21.785156 3.140625 -20.640625 C 2.328125 -19.492188 1.847656 -18.296875 1.703125 -17.046875 C 1.566406 -15.972656 1.734375 -14.941406 2.203125 -13.953125 C 2.679688 -12.972656 3.390625 -12.207031 4.328125 -11.65625 C 5.960938 -10.71875 7.703125 -10.40625 9.546875 -10.71875 C 9.867188 -10.78125 10.078125 -10.96875 10.171875 -11.28125 C 10.546875 -12.457031 10.890625 -13.582031 11.203125 -14.65625 C 11.523438 -15.738281 11.804688 -16.671875 12.046875 -17.453125 C 12.078125 -17.585938 12.046875 -17.703125 11.953125 -17.796875 C 11.859375 -17.890625 11.75 -17.914062 11.625 -17.875 C 10.394531 -17.53125 9.25 -17.703125 8.1875 -18.390625 C 8.039062 -18.484375 7.945312 -18.609375 7.90625 -18.765625 C 7.875 -18.929688 7.90625 -19.085938 8 -19.234375 C 8.070312 -19.367188 8.191406 -19.453125 8.359375 -19.484375 C 8.523438 -19.523438 8.6875 -19.507812 8.84375 -19.4375 C 9.476562 -19.03125 10.171875 -18.878906 10.921875 -18.984375 C 11.679688 -19.085938 12.320312 -19.414062 12.84375 -19.96875 C 13.0625 -20.207031 13.3125 -20.25 13.59375 -20.09375 C 13.875 -19.9375 13.96875 -19.703125 13.875 -19.390625 C 13.875 -19.359375 13.769531 -18.992188 13.5625 -18.296875 C 13.363281 -17.609375 13.09375 -16.691406 12.75 -15.546875 C 12.40625 -14.398438 12.023438 -13.140625 11.609375 -11.765625 C 11.578125 -11.628906 11.601562 -11.515625 11.6875 -11.421875 C 11.78125 -11.328125 11.898438 -11.296875 12.046875 -11.328125 C 13.484375 -11.835938 14.832031 -12.515625 16.09375 -13.359375 C 16.28125 -13.484375 16.484375 -13.5 16.703125 -13.40625 C 16.921875 -13.289062 17.035156 -13.109375 17.046875 -12.859375 C 17.046875 -12.628906 16.945312 -12.453125 16.75 -12.328125 C 15.125 -11.234375 13.367188 -10.414062 11.484375 -9.875 C 11.160156 -9.789062 10.941406 -9.585938 10.828125 -9.265625 Z M 10.828125 -9.265625 "/></g></g></g><g fill="#272626" fill-opacity="1"><g transform="translate(108.857875, 256.240471)"><g><path d="M 19.625 -6.015625 C 19.726562 -5.890625 19.773438 -5.738281 19.765625 -5.5625 C 19.742188 -5.394531 19.664062 -5.253906 19.53125 -5.140625 C 19.46875 -5.097656 19.1875 -4.890625 18.6875 -4.515625 C 18.1875 -4.148438 17.515625 -3.710938 16.671875 -3.203125 C 15.835938 -2.703125 14.863281 -2.203125 13.75 -1.703125 C 12.644531 -1.203125 11.457031 -0.789062 10.1875 -0.46875 C 8.925781 -0.144531 7.628906 0.015625 6.296875 0.015625 C 4.703125 0.0351562 3.171875 -0.25 1.703125 -0.84375 C 0.890625 -1.164062 0.320312 -1.546875 0 -1.984375 C -0.320312 -2.421875 -0.503906 -2.847656 -0.546875 -3.265625 C -0.597656 -3.691406 -0.59375 -4.050781 -0.53125 -4.34375 C -0.394531 -4.925781 -0.125 -5.484375 0.28125 -6.015625 C 0.6875 -6.554688 1.160156 -7.039062 1.703125 -7.46875 C 2.253906 -7.894531 2.8125 -8.222656 3.375 -8.453125 C 3.945312 -8.691406 4.46875 -8.796875 4.9375 -8.765625 C 5.351562 -8.765625 5.710938 -8.613281 6.015625 -8.3125 C 6.328125 -8.019531 6.5 -7.660156 6.53125 -7.234375 C 6.539062 -6.984375 6.472656 -6.671875 6.328125 -6.296875 C 6.191406 -5.929688 5.835938 -5.5625 5.265625 -5.1875 C 3.941406 -4.363281 2.488281 -4 0.90625 -4.09375 C 0.832031 -4.101562 0.765625 -4.085938 0.703125 -4.046875 C 0.640625 -3.992188 0.613281 -3.929688 0.625 -3.859375 C 0.613281 -3.722656 0.628906 -3.546875 0.671875 -3.328125 C 0.722656 -3.109375 0.859375 -2.878906 1.078125 -2.640625 C 1.296875 -2.410156 1.660156 -2.191406 2.171875 -1.984375 C 3.234375 -1.535156 4.320312 -1.28125 5.4375 -1.21875 C 6.550781 -1.15625 7.644531 -1.222656 8.71875 -1.421875 C 9.800781 -1.628906 10.835938 -1.914062 11.828125 -2.28125 C 12.816406 -2.644531 13.726562 -3.046875 14.5625 -3.484375 C 15.394531 -3.921875 16.125 -4.332031 16.75 -4.71875 C 17.375 -5.113281 17.863281 -5.441406 18.21875 -5.703125 C 18.582031 -5.972656 18.765625 -6.109375 18.765625 -6.109375 C 18.898438 -6.210938 19.054688 -6.257812 19.234375 -6.25 C 19.378906 -6.226562 19.507812 -6.148438 19.625 -6.015625 Z M 1.453125 -5.515625 C 1.273438 -5.285156 1.289062 -5.15625 1.5 -5.125 C 1.71875 -5.101562 2.019531 -5.148438 2.40625 -5.265625 C 2.800781 -5.390625 3.203125 -5.539062 3.609375 -5.71875 C 4.023438 -5.894531 4.359375 -6.0625 4.609375 -6.21875 C 5.085938 -6.550781 5.3125 -6.847656 5.28125 -7.109375 C 5.269531 -7.285156 5.226562 -7.398438 5.15625 -7.453125 C 5.082031 -7.503906 4.984375 -7.539062 4.859375 -7.5625 C 4.359375 -7.59375 3.78125 -7.414062 3.125 -7.03125 C 2.476562 -6.644531 1.921875 -6.140625 1.453125 -5.515625 Z M 1.453125 -5.515625 "/></g></g></g><g fill="#272626" fill-opacity="1"><g transform="translate(127.584334, 256.240471)"><g><path d="M 19.625 -6.015625 C 19.726562 -5.890625 19.773438 -5.738281 19.765625 -5.5625 C 19.742188 -5.394531 19.664062 -5.253906 19.53125 -5.140625 C 19.46875 -5.097656 19.1875 -4.890625 18.6875 -4.515625 C 18.1875 -4.148438 17.515625 -3.710938 16.671875 -3.203125 C 15.835938 -2.703125 14.863281 -2.203125 13.75 -1.703125 C 12.644531 -1.203125 11.457031 -0.789062 10.1875 -0.46875 C 8.925781 -0.144531 7.628906 0.015625 6.296875 0.015625 C 4.703125 0.0351562 3.171875 -0.25 1.703125 -0.84375 C 0.890625 -1.164062 0.320312 -1.546875 0 -1.984375 C -0.320312 -2.421875 -0.503906 -2.847656 -0.546875 -3.265625 C -0.597656 -3.691406 -0.59375 -4.050781 -0.53125 -4.34375 C -0.394531 -4.925781 -0.125 -5.484375 0.28125 -6.015625 C 0.6875 -6.554688 1.160156 -7.039062 1.703125 -7.46875 C 2.253906 -7.894531 2.8125 -8.222656 3.375 -8.453125 C 3.945312 -8.691406 4.46875 -8.796875 4.9375 -8.765625 C 5.351562 -8.765625 5.710938 -8.613281 6.015625 -8.3125 C 6.328125 -8.019531 6.5 -7.660156 6.53125 -7.234375 C 6.539062 -6.984375 6.472656 -6.671875 6.328125 -6.296875 C 6.191406 -5.929688 5.835938 -5.5625 5.265625 -5.1875 C 3.941406 -4.363281 2.488281 -4 0.90625 -4.09375 C 0.832031 -4.101562 0.765625 -4.085938 0.703125 -4.046875 C 0.640625 -3.992188 0.613281 -3.929688 0.625 -3.859375 C 0.613281 -3.722656 0.628906 -3.546875 0.671875 -3.328125 C 0.722656 -3.109375 0.859375 -2.878906 1.078125 -2.640625 C 1.296875 -2.410156 1.660156 -2.191406 2.171875 -1.984375 C 3.234375 -1.535156 4.320312 -1.28125 5.4375 -1.21875 C 6.550781 -1.15625 7.644531 -1.222656 8.71875 -1.421875 C 9.800781 -1.628906 10.835938 -1.914062 11.828125 -2.28125 C 12.816406 -2.644531 13.726562 -3.046875 14.5625 -3.484375 C 15.394531 -3.921875 16.125 -4.332031 16.75 -4.71875 C 17.375 -5.113281 17.863281 -5.441406 18.21875 -5.703125 C 18.582031 -5.972656 18.765625 -6.109375 18.765625 -6.109375 C 18.898438 -6.210938 19.054688 -6.257812 19.234375 -6.25 C 19.378906 -6.226562 19.507812 -6.148438 19.625 -6.015625 Z M 1.453125 -5.515625 C 1.273438 -5.285156 1.289062 -5.15625 1.5 -5.125 C 1.71875 -5.101562 2.019531 -5.148438 2.40625 -5.265625 C 2.800781 -5.390625 3.203125 -5.539062 3.609375 -5.71875 C 4.023438 -5.894531 4.359375 -6.0625 4.609375 -6.21875 C 5.085938 -6.550781 5.3125 -6.847656 5.28125 -7.109375 C 5.269531 -7.285156 5.226562 -7.398438 5.15625 -7.453125 C 5.082031 -7.503906 4.984375 -7.539062 4.859375 -7.5625 C 4.359375 -7.59375 3.78125 -7.414062 3.125 -7.03125 C 2.476562 -6.644531 1.921875 -6.140625 1.453125 -5.515625 Z M 1.453125 -5.515625 "/></g></g></g><g fill="#272626" fill-opacity="1"><g transform="translate(146.310792, 256.240471)"><g><path d="M 19.71875 -5.84375 C 19.84375 -5.71875 19.894531 -5.570312 19.875 -5.40625 C 19.875 -5.226562 19.804688 -5.085938 19.671875 -4.984375 C 17.765625 -3.390625 15.640625 -2.160156 13.296875 -1.296875 C 10.960938 -0.441406 8.550781 -0.0078125 6.0625 0 C 4.84375 0 3.632812 -0.109375 2.4375 -0.328125 C 1.4375 -0.492188 0.691406 -0.753906 0.203125 -1.109375 C -0.273438 -1.472656 -0.59375 -1.851562 -0.75 -2.25 C -0.914062 -2.65625 -1 -3.003906 -1 -3.296875 C -1 -3.898438 -0.828125 -4.507812 -0.484375 -5.125 C -0.148438 -5.75 0.285156 -6.328125 0.828125 -6.859375 C 1.367188 -7.390625 1.9375 -7.832031 2.53125 -8.1875 C 3.132812 -8.539062 3.6875 -8.765625 4.1875 -8.859375 C 5.132812 -9.128906 5.992188 -8.96875 6.765625 -8.375 C 7.398438 -7.769531 7.71875 -7.019531 7.71875 -6.125 C 7.707031 -5.957031 7.640625 -5.8125 7.515625 -5.6875 C 7.398438 -5.570312 7.257812 -5.515625 7.09375 -5.515625 C 6.914062 -5.515625 6.769531 -5.578125 6.65625 -5.703125 C 6.539062 -5.828125 6.484375 -5.976562 6.484375 -6.15625 C 6.492188 -6.65625 6.320312 -7.082031 5.96875 -7.4375 C 5.476562 -7.75 4.960938 -7.820312 4.421875 -7.65625 C 4.003906 -7.570312 3.550781 -7.378906 3.0625 -7.078125 C 2.582031 -6.773438 2.125 -6.40625 1.6875 -5.96875 C 1.257812 -5.539062 0.90625 -5.085938 0.625 -4.609375 C 0.34375 -4.140625 0.203125 -3.703125 0.203125 -3.296875 C 0.222656 -2.410156 1.035156 -1.816406 2.640625 -1.515625 C 4.203125 -1.234375 5.6875 -1.140625 7.09375 -1.234375 C 8.507812 -1.328125 9.816406 -1.539062 11.015625 -1.875 C 12.210938 -2.21875 13.289062 -2.609375 14.25 -3.046875 C 15.207031 -3.492188 16.023438 -3.929688 16.703125 -4.359375 C 17.390625 -4.785156 17.914062 -5.144531 18.28125 -5.4375 C 18.644531 -5.726562 18.835938 -5.878906 18.859375 -5.890625 C 18.984375 -6.003906 19.128906 -6.054688 19.296875 -6.046875 C 19.460938 -6.035156 19.601562 -5.96875 19.71875 -5.84375 Z M 19.71875 -5.84375 "/></g></g></g><g fill="#272626" fill-opacity="1"><g transform="translate(165.037251, 256.240471)"><g><path d="M 19.625 -6.015625 C 19.726562 -5.890625 19.773438 -5.738281 19.765625 -5.5625 C 19.742188 -5.394531 19.664062 -5.253906 19.53125 -5.140625 C 19.46875 -5.097656 19.1875 -4.890625 18.6875 -4.515625 C 18.1875 -4.148438 17.515625 -3.710938 16.671875 -3.203125 C 15.835938 -2.703125 14.863281 -2.203125 13.75 -1.703125 C 12.644531 -1.203125 11.457031 -0.789062 10.1875 -0.46875 C 8.925781 -0.144531 7.628906 0.015625 6.296875 0.015625 C 4.703125 0.0351562 3.171875 -0.25 1.703125 -0.84375 C 0.890625 -1.164062 0.320312 -1.546875 0 -1.984375 C -0.320312 -2.421875 -0.503906 -2.847656 -0.546875 -3.265625 C -0.597656 -3.691406 -0.59375 -4.050781 -0.53125 -4.34375 C -0.394531 -4.925781 -0.125 -5.484375 0.28125 -6.015625 C 0.6875 -6.554688 1.160156 -7.039062 1.703125 -7.46875 C 2.253906 -7.894531 2.8125 -8.222656 3.375 -8.453125 C 3.945312 -8.691406 4.46875 -8.796875 4.9375 -8.765625 C 5.351562 -8.765625 5.710938 -8.613281 6.015625 -8.3125 C 6.328125 -8.019531 6.5 -7.660156 6.53125 -7.234375 C 6.539062 -6.984375 6.472656 -6.671875 6.328125 -6.296875 C 6.191406 -5.929688 5.835938 -5.5625 5.265625 -5.1875 C 3.941406 -4.363281 2.488281 -4 0.90625 -4.09375 C 0.832031 -4.101562 0.765625 -4.085938 0.703125 -4.046875 C 0.640625 -3.992188 0.613281 -3.929688 0.625 -3.859375 C 0.613281 -3.722656 0.628906 -3.546875 0.671875 -3.328125 C 0.722656 -3.109375 0.859375 -2.878906 1.078125 -2.640625 C 1.296875 -2.410156 1.660156 -2.191406 2.171875 -1.984375 C 3.234375 -1.535156 4.320312 -1.28125 5.4375 -1.21875 C 6.550781 -1.15625 7.644531 -1.222656 8.71875 -1.421875 C 9.800781 -1.628906 10.835938 -1.914062 11.828125 -2.28125 C 12.816406 -2.644531 13.726562 -3.046875 14.5625 -3.484375 C 15.394531 -3.921875 16.125 -4.332031 16.75 -4.71875 C 17.375 -5.113281 17.863281 -5.441406 18.21875 -5.703125 C 18.582031 -5.972656 18.765625 -6.109375 18.765625 -6.109375 C 18.898438 -6.210938 19.054688 -6.257812 19.234375 -6.25 C 19.378906 -6.226562 19.507812 -6.148438 19.625 -6.015625 Z M 1.453125 -5.515625 C 1.273438 -5.285156 1.289062 -5.15625 1.5 -5.125 C 1.71875 -5.101562 2.019531 -5.148438 2.40625 -5.265625 C 2.800781 -5.390625 3.203125 -5.539062 3.609375 -5.71875 C 4.023438 -5.894531 4.359375 -6.0625 4.609375 -6.21875 C 5.085938 -6.550781 5.3125 -6.847656 5.28125 -7.109375 C 5.269531 -7.285156 5.226562 -7.398438 5.15625 -7.453125 C 5.082031 -7.503906 4.984375 -7.539062 4.859375 -7.5625 C 4.359375 -7.59375 3.78125 -7.414062 3.125 -7.03125 C 2.476562 -6.644531 1.921875 -6.140625 1.453125 -5.515625 Z M 1.453125 -5.515625 "/></g></g></g><g fill="#272626" fill-opacity="1"><g transform="translate(183.763709, 256.240471)"><g><path d="M 19.625 -6.015625 C 19.726562 -5.890625 19.773438 -5.738281 19.765625 -5.5625 C 19.742188 -5.394531 19.664062 -5.253906 19.53125 -5.140625 C 19.46875 -5.097656 19.1875 -4.890625 18.6875 -4.515625 C 18.1875 -4.148438 17.515625 -3.710938 16.671875 -3.203125 C 15.835938 -2.703125 14.863281 -2.203125 13.75 -1.703125 C 12.644531 -1.203125 11.457031 -0.789062 10.1875 -0.46875 C 8.925781 -0.144531 7.628906 0.015625 6.296875 0.015625 C 4.703125 0.0351562 3.171875 -0.25 1.703125 -0.84375 C 0.890625 -1.164062 0.320312 -1.546875 0 -1.984375 C -0.320312 -2.421875 -0.503906 -2.847656 -0.546875 -3.265625 C -0.597656 -3.691406 -0.59375 -4.050781 -0.53125 -4.34375 C -0.394531 -4.925781 -0.125 -5.484375 0.28125 -6.015625 C 0.6875 -6.554688 1.160156 -7.039062 1.703125 -7.46875 C 2.253906 -7.894531 2.8125 -8.222656 3.375 -8.453125 C 3.945312 -8.691406 4.46875 -8.796875 4.9375 -8.765625 C 5.351562 -8.765625 5.710938 -8.613281 6.015625 -8.3125 C 6.328125 -8.019531 6.5 -7.660156 6.53125 -7.234375 C 6.539062 -6.984375 6.472656 -6.671875 6.328125 -6.296875 C 6.191406 -5.929688 5.835938 -5.5625 5.265625 -5.1875 C 3.941406 -4.363281 2.488281 -4 0.90625 -4.09375 C 0.832031 -4.101562 0.765625 -4.085938 0.703125 -4.046875 C 0.640625 -3.992188 0.613281 -3.929688 0.625 -3.859375 C 0.613281 -3.722656 0.628906 -3.546875 0.671875 -3.328125 C 0.722656 -3.109375 0.859375 -2.878906 1.078125 -2.640625 C 1.296875 -2.410156 1.660156 -2.191406 2.171875 -1.984375 C 3.234375 -1.535156 4.320312 -1.28125 5.4375 -1.21875 C 6.550781 -1.15625 7.644531 -1.222656 8.71875 -1.421875 C 9.800781 -1.628906 10.835938 -1.914062 11.828125 -2.28125 C 12.816406 -2.644531 13.726562 -3.046875 14.5625 -3.484375 C 15.394531 -3.921875 16.125 -4.332031 16.75 -4.71875 C 17.375 -5.113281 17.863281 -5.441406 18.21875 -5.703125 C 18.582031 -5.972656 18.765625 -6.109375 18.765625 -6.109375 C 18.898438 -6.210938 19.054688 -6.257812 19.234375 -6.25 C 19.378906 -6.226562 19.507812 -6.148438 19.625 -6.015625 Z M 1.453125 -5.515625 C 1.273438 -5.285156 1.289062 -5.15625 1.5 -5.125 C 1.71875 -5.101562 2.019531 -5.148438 2.40625 -5.265625 C 2.800781 -5.390625 3.203125 -5.539062 3.609375 -5.71875 C 4.023438 -5.894531 4.359375 -6.0625 4.609375 -6.21875 C 5.085938 -6.550781 5.3125 -6.847656 5.28125 -7.109375 C 5.269531 -7.285156 5.226562 -7.398438 5.15625 -7.453125 C 5.082031 -7.503906 4.984375 -7.539062 4.859375 -7.5625 C 4.359375 -7.59375 3.78125 -7.414062 3.125 -7.03125 C 2.476562 -6.644531 1.921875 -6.140625 1.453125 -5.515625 Z M 1.453125 -5.515625 "/></g></g></g><g fill="#272626" fill-opacity="1"><g transform="translate(202.490168, 256.240471)"><g/></g></g><g fill="#272626" fill-opacity="1"><g transform="translate(211.187105, 256.240471)"><g><path d="M 30.5 -10.921875 C 30.738281 -10.972656 30.9375 -10.90625 31.09375 -10.71875 C 31.238281 -10.53125 31.265625 -10.316406 31.171875 -10.078125 C 31.085938 -9.859375 30.921875 -9.734375 30.671875 -9.703125 C 30.046875 -9.628906 29.28125 -9.53125 28.375 -9.40625 C 27.46875 -9.28125 26.484375 -9.15625 25.421875 -9.03125 C 25.160156 -9 24.988281 -8.859375 24.90625 -8.609375 L 22.546875 -0.859375 C 22.503906 -0.703125 22.414062 -0.582031 22.28125 -0.5 C 22.144531 -0.414062 22 -0.390625 21.84375 -0.421875 C 21.6875 -0.453125 21.5625 -0.53125 21.46875 -0.65625 C 21.375 -0.789062 21.335938 -0.9375 21.359375 -1.09375 C 21.671875 -3.4375 21.546875 -5.753906 20.984375 -8.046875 C 20.890625 -8.367188 20.675781 -8.507812 20.34375 -8.46875 C 19.488281 -8.382812 18.613281 -8.300781 17.71875 -8.21875 C 16.832031 -8.144531 15.957031 -8.078125 15.09375 -8.015625 C 14.8125 -8.003906 14.628906 -7.867188 14.546875 -7.609375 L 12.609375 -0.625 C 12.554688 -0.457031 12.457031 -0.332031 12.3125 -0.25 C 12.175781 -0.175781 12.023438 -0.160156 11.859375 -0.203125 C 11.703125 -0.253906 11.582031 -0.347656 11.5 -0.484375 C 11.414062 -0.628906 11.394531 -0.785156 11.4375 -0.953125 L 13.140625 -7.140625 C 13.203125 -7.328125 13.171875 -7.5 13.046875 -7.65625 C 12.910156 -7.820312 12.738281 -7.894531 12.53125 -7.875 C 11.101562 -7.800781 9.742188 -7.765625 8.453125 -7.765625 C 7.171875 -7.773438 6.019531 -7.832031 5 -7.9375 C 3.976562 -8.039062 3.140625 -8.203125 2.484375 -8.421875 C 1.835938 -8.648438 1.429688 -8.953125 1.265625 -9.328125 C 0.960938 -10.015625 1.320312 -10.765625 2.34375 -11.578125 C 3.445312 -12.453125 4.695312 -13.203125 6.09375 -13.828125 C 7.488281 -14.460938 8.9375 -14.910156 10.4375 -15.171875 C 11.945312 -15.441406 13.410156 -15.453125 14.828125 -15.203125 C 14.984375 -15.171875 15.128906 -15.191406 15.265625 -15.265625 C 15.398438 -15.347656 15.484375 -15.46875 15.515625 -15.625 L 18.640625 -26.875 C 18.703125 -27.113281 18.851562 -27.257812 19.09375 -27.3125 C 19.320312 -27.375 19.515625 -27.320312 19.671875 -27.15625 C 19.835938 -26.988281 19.890625 -26.785156 19.828125 -26.546875 L 16.671875 -15.25 C 16.640625 -15.113281 16.65625 -14.976562 16.71875 -14.84375 C 16.78125 -14.707031 16.882812 -14.609375 17.03125 -14.546875 C 17.289062 -14.441406 17.546875 -14.316406 17.796875 -14.171875 C 19.453125 -13.265625 20.675781 -11.957031 21.46875 -10.25 C 21.582031 -10 21.78125 -9.878906 22.0625 -9.890625 C 22.601562 -9.953125 23.144531 -10.015625 23.6875 -10.078125 C 23.957031 -10.109375 24.128906 -10.25 24.203125 -10.5 L 29.5 -27.90625 C 29.539062 -28.0625 29.632812 -28.175781 29.78125 -28.25 C 29.9375 -28.332031 30.097656 -28.347656 30.265625 -28.296875 C 30.421875 -28.253906 30.535156 -28.15625 30.609375 -28 C 30.691406 -27.851562 30.710938 -27.695312 30.671875 -27.53125 L 25.6875 -11.15625 C 25.625 -10.957031 25.660156 -10.769531 25.796875 -10.59375 C 25.941406 -10.425781 26.125 -10.359375 26.34375 -10.390625 C 27.007812 -10.460938 27.691406 -10.546875 28.390625 -10.640625 C 29.097656 -10.734375 29.800781 -10.828125 30.5 -10.921875 Z M 2.390625 -9.796875 C 2.515625 -9.535156 3.039062 -9.335938 3.96875 -9.203125 C 4.894531 -9.066406 6.15625 -9 7.75 -9 C 9.351562 -9 11.195312 -9.0625 13.28125 -9.1875 C 13.582031 -9.207031 13.769531 -9.347656 13.84375 -9.609375 L 14.859375 -13.28125 C 14.898438 -13.457031 14.875 -13.613281 14.78125 -13.75 C 14.6875 -13.90625 14.554688 -14 14.390625 -14.03125 C 13.859375 -14.113281 13.328125 -14.15625 12.796875 -14.15625 C 11.035156 -14.09375 9.328125 -13.757812 7.671875 -13.15625 C 6.015625 -12.550781 4.492188 -11.707031 3.109375 -10.625 C 2.753906 -10.34375 2.546875 -10.132812 2.484375 -10 C 2.421875 -9.863281 2.390625 -9.796875 2.390625 -9.796875 Z M 15.859375 -9.359375 C 16.992188 -9.429688 18.1875 -9.523438 19.4375 -9.640625 C 19.65625 -9.671875 19.8125 -9.785156 19.90625 -9.984375 C 20.007812 -10.191406 20 -10.390625 19.875 -10.578125 C 19.207031 -11.648438 18.320312 -12.488281 17.21875 -13.09375 C 16.882812 -13.28125 16.546875 -13.4375 16.203125 -13.5625 L 15.25 -10.109375 C 15.1875 -9.898438 15.226562 -9.71875 15.375 -9.5625 C 15.5 -9.40625 15.660156 -9.335938 15.859375 -9.359375 Z M 22.671875 -5.453125 L 23.4375 -7.96875 C 23.5 -8.175781 23.460938 -8.359375 23.328125 -8.515625 C 23.179688 -8.679688 23.007812 -8.75 22.8125 -8.71875 L 22.78125 -8.71875 C 22.59375 -8.707031 22.453125 -8.628906 22.359375 -8.484375 C 22.253906 -8.347656 22.222656 -8.1875 22.265625 -8 C 22.472656 -7.175781 22.609375 -6.328125 22.671875 -5.453125 Z M 22.671875 -5.453125 "/></g></g></g><g fill="#272626" fill-opacity="1"><g transform="translate(242.257594, 256.240471)"><g><path d="M 19.546875 -5.6875 C 19.660156 -5.5625 19.71875 -5.410156 19.71875 -5.234375 C 19.695312 -5.066406 19.625 -4.925781 19.5 -4.8125 C 19.457031 -4.769531 19.226562 -4.578125 18.8125 -4.234375 C 18.40625 -3.890625 17.859375 -3.484375 17.171875 -3.015625 C 16.492188 -2.546875 15.726562 -2.085938 14.875 -1.640625 C 14.03125 -1.203125 13.132812 -0.847656 12.1875 -0.578125 C 11.25 -0.316406 10.304688 -0.21875 9.359375 -0.28125 C 8.421875 -0.34375 7.523438 -0.65625 6.671875 -1.21875 C 6.015625 -1.632812 5.488281 -2.179688 5.09375 -2.859375 C 4.988281 -3.046875 4.816406 -3.144531 4.578125 -3.15625 C 4.359375 -3.175781 4.1875 -3.09375 4.0625 -2.90625 C 3.726562 -2.382812 3.359375 -1.894531 2.953125 -1.4375 C 2.546875 -0.976562 2.128906 -0.609375 1.703125 -0.328125 C 1.285156 -0.046875 0.878906 0.0976562 0.484375 0.109375 L 0.46875 0.109375 C 0.1875 0.0976562 -0.0703125 0.015625 -0.3125 -0.140625 C -0.550781 -0.304688 -0.726562 -0.523438 -0.84375 -0.796875 C -1.3125 -1.960938 -1.238281 -3.097656 -0.625 -4.203125 C -0.113281 -5.285156 0.601562 -6.203125 1.53125 -6.953125 C 2.457031 -7.710938 3.503906 -8.234375 4.671875 -8.515625 C 4.910156 -8.578125 5.109375 -8.519531 5.265625 -8.34375 C 5.429688 -8.175781 5.484375 -7.976562 5.421875 -7.75 C 5.347656 -7.53125 5.191406 -7.390625 4.953125 -7.328125 C 3.972656 -7.085938 3.09375 -6.648438 2.3125 -6.015625 C 1.53125 -5.390625 0.921875 -4.617188 0.484375 -3.703125 C 0.0546875 -2.953125 -0.0195312 -2.171875 0.25 -1.359375 C 0.34375 -1.203125 0.414062 -1.125 0.46875 -1.125 C 0.601562 -1.03125 0.8125 -1.125 1.09375 -1.40625 C 1.375 -1.695312 1.691406 -2.109375 2.046875 -2.640625 C 2.410156 -3.171875 2.769531 -3.753906 3.125 -4.390625 C 3.476562 -5.035156 3.789062 -5.660156 4.0625 -6.265625 C 4.1875 -6.546875 4.40625 -6.664062 4.71875 -6.625 C 5.019531 -6.570312 5.191406 -6.398438 5.234375 -6.109375 C 5.234375 -6.085938 5.265625 -5.929688 5.328125 -5.640625 C 5.390625 -5.359375 5.5 -5.003906 5.65625 -4.578125 C 5.8125 -4.160156 6.023438 -3.738281 6.296875 -3.3125 C 6.578125 -2.882812 6.925781 -2.53125 7.34375 -2.25 C 8.0625 -1.757812 8.835938 -1.503906 9.671875 -1.484375 C 10.503906 -1.460938 11.34375 -1.585938 12.1875 -1.859375 C 13.03125 -2.128906 13.835938 -2.472656 14.609375 -2.890625 C 15.378906 -3.304688 16.066406 -3.726562 16.671875 -4.15625 C 17.285156 -4.59375 17.769531 -4.957031 18.125 -5.25 C 18.488281 -5.550781 18.675781 -5.710938 18.6875 -5.734375 C 18.8125 -5.835938 18.957031 -5.882812 19.125 -5.875 C 19.300781 -5.875 19.441406 -5.8125 19.546875 -5.6875 Z M 19.546875 -5.6875 "/></g></g></g><g fill="#272626" fill-opacity="1"><g transform="translate(261.147703, 256.240471)"><g><path d="M 15.15625 -6.3125 C 15.28125 -6.207031 15.34375 -6.066406 15.34375 -5.890625 C 15.34375 -5.722656 15.289062 -5.578125 15.1875 -5.453125 C 15.125 -5.398438 14.882812 -5.175781 14.46875 -4.78125 C 14.050781 -4.394531 13.503906 -3.929688 12.828125 -3.390625 C 12.148438 -2.859375 11.375 -2.328125 10.5 -1.796875 C 9.625 -1.265625 8.691406 -0.820312 7.703125 -0.46875 C 6.710938 -0.125 5.71875 0.046875 4.71875 0.046875 C 3.289062 0.0546875 2.003906 -0.363281 0.859375 -1.21875 C 0.390625 -1.5625 0.0703125 -1.96875 -0.09375 -2.4375 C -0.257812 -2.90625 -0.332031 -3.382812 -0.3125 -3.875 C -0.289062 -4.375 -0.21875 -4.84375 -0.09375 -5.28125 C 0.03125 -5.71875 0.148438 -6.078125 0.265625 -6.359375 C 0.378906 -6.640625 0.445312 -6.796875 0.46875 -6.828125 C 0.5625 -6.972656 0.6875 -7.066406 0.84375 -7.109375 C 1 -7.160156 1.144531 -7.144531 1.28125 -7.0625 C 1.4375 -6.988281 1.539062 -6.875 1.59375 -6.71875 C 1.65625 -6.5625 1.644531 -6.410156 1.5625 -6.265625 C 1.5625 -6.253906 1.515625 -6.144531 1.421875 -5.9375 C 1.328125 -5.738281 1.226562 -5.472656 1.125 -5.140625 C 1.03125 -4.816406 0.960938 -4.472656 0.921875 -4.109375 C 0.878906 -3.742188 0.90625 -3.390625 1 -3.046875 C 1.09375 -2.703125 1.289062 -2.421875 1.59375 -2.203125 C 2.3125 -1.671875 3.070312 -1.347656 3.875 -1.234375 C 4.675781 -1.128906 5.484375 -1.171875 6.296875 -1.359375 C 7.109375 -1.554688 7.898438 -1.847656 8.671875 -2.234375 C 9.453125 -2.617188 10.175781 -3.039062 10.84375 -3.5 C 11.519531 -3.957031 12.113281 -4.394531 12.625 -4.8125 C 13.144531 -5.238281 13.546875 -5.59375 13.828125 -5.875 C 14.117188 -6.15625 14.273438 -6.300781 14.296875 -6.3125 C 14.421875 -6.4375 14.5625 -6.5 14.71875 -6.5 C 14.882812 -6.5 15.03125 -6.4375 15.15625 -6.3125 Z M 0.203125 -8.15625 C -0.0976562 -8.15625 -0.289062 -8.3125 -0.375 -8.625 C -0.445312 -8.9375 -0.34375 -9.171875 -0.0625 -9.328125 C 0.363281 -9.546875 0.75 -9.835938 1.09375 -10.203125 C 1.21875 -10.328125 1.363281 -10.390625 1.53125 -10.390625 C 1.695312 -10.390625 1.84375 -10.332031 1.96875 -10.21875 C 2.09375 -10.09375 2.15625 -9.945312 2.15625 -9.78125 C 2.164062 -9.625 2.109375 -9.484375 1.984375 -9.359375 C 1.546875 -8.898438 1.054688 -8.53125 0.515625 -8.25 C 0.421875 -8.1875 0.316406 -8.15625 0.203125 -8.15625 Z M 0.203125 -8.15625 "/></g></g></g><g fill="#272626" fill-opacity="1"><g transform="translate(275.502313, 256.240471)"><g><path d="M 20.1875 -6.15625 C 20.289062 -6.03125 20.34375 -5.890625 20.34375 -5.734375 C 20.34375 -5.554688 20.28125 -5.40625 20.15625 -5.28125 C 19.351562 -4.488281 18.453125 -3.804688 17.453125 -3.234375 C 16.453125 -2.671875 15.414062 -2.203125 14.34375 -1.828125 C 13.28125 -1.453125 12.242188 -1.171875 11.234375 -0.984375 C 10.234375 -0.804688 9.316406 -0.71875 8.484375 -0.71875 C 7.597656 -0.675781 6.742188 -0.84375 5.921875 -1.21875 C 5.359375 -1.539062 4.976562 -1.894531 4.78125 -2.28125 C 4.582031 -2.675781 4.5 -3.078125 4.53125 -3.484375 C 4.5625 -3.898438 4.648438 -4.289062 4.796875 -4.65625 C 4.953125 -5.03125 5.097656 -5.347656 5.234375 -5.609375 C 5.265625 -5.671875 5.25 -5.71875 5.1875 -5.75 C 5.125 -5.78125 5.015625 -5.757812 4.859375 -5.6875 C 4.003906 -5.21875 3.085938 -5.003906 2.109375 -5.046875 C 1.671875 -5.035156 1.238281 -5.125 0.8125 -5.3125 C 0.65625 -5.257812 0.5 -5.273438 0.34375 -5.359375 C 0.101562 -5.484375 -0.00390625 -5.6875 0.015625 -5.96875 C -0.210938 -6.25 -0.375 -6.566406 -0.46875 -6.921875 C -0.65625 -7.554688 -0.640625 -8.1875 -0.421875 -8.8125 C -0.203125 -9.4375 0.175781 -9.953125 0.71875 -10.359375 C 1.375 -10.753906 1.890625 -10.769531 2.265625 -10.40625 C 2.316406 -10.363281 2.375 -10.28125 2.4375 -10.15625 C 2.507812 -10.039062 2.550781 -9.859375 2.5625 -9.609375 C 2.582031 -9.359375 2.535156 -9.003906 2.421875 -8.546875 C 2.304688 -8.097656 2.082031 -7.507812 1.75 -6.78125 C 1.71875 -6.71875 1.738281 -6.613281 1.8125 -6.46875 C 1.894531 -6.332031 1.992188 -6.265625 2.109375 -6.265625 C 3.015625 -6.265625 3.863281 -6.492188 4.65625 -6.953125 C 4.914062 -7.085938 5.191406 -7.203125 5.484375 -7.296875 C 5.785156 -7.390625 6.101562 -7.3125 6.4375 -7.0625 C 6.757812 -6.8125 6.863281 -6.503906 6.75 -6.140625 C 6.644531 -5.773438 6.507812 -5.421875 6.34375 -5.078125 C 5.976562 -4.335938 5.785156 -3.757812 5.765625 -3.34375 C 5.753906 -2.9375 6.015625 -2.578125 6.546875 -2.265625 C 6.847656 -2.097656 7.351562 -1.992188 8.0625 -1.953125 C 8.769531 -1.910156 9.59375 -1.960938 10.53125 -2.109375 C 11.476562 -2.265625 12.472656 -2.507812 13.515625 -2.84375 C 14.566406 -3.175781 15.585938 -3.613281 16.578125 -4.15625 C 17.578125 -4.707031 18.484375 -5.378906 19.296875 -6.171875 C 19.421875 -6.285156 19.566406 -6.34375 19.734375 -6.34375 C 19.910156 -6.34375 20.0625 -6.28125 20.1875 -6.15625 Z M 0.671875 -7.4375 C 0.953125 -8.03125 1.171875 -8.644531 1.328125 -9.28125 C 0.753906 -8.78125 0.535156 -8.164062 0.671875 -7.4375 Z M 0.671875 -7.4375 "/></g></g></g><g clip-path="url(#a215660d85)"><path fill="#272626" d="M 223.457031 209.199219 C 223.488281 209.089844 223.488281 208.976562 223.457031 208.867188 C 222.75 205.699219 221.289062 202.933594 219.070312 200.5625 C 218.175781 199.597656 217.179688 198.667969 216.246094 197.738281 C 215.316406 196.808594 213.921875 195.613281 212.925781 194.417969 C 211.554688 192.785156 210.367188 191.023438 209.371094 189.136719 C 208.25 187.066406 207.242188 184.9375 206.351562 182.757812 C 205.78125 181.378906 205.328125 179.960938 204.988281 178.507812 C 204.921875 178.140625 204.820312 177.675781 204.789062 177.277344 C 204.75 177.105469 204.726562 176.925781 204.722656 176.746094 C 204.722656 176.679688 204.6875 176.613281 204.6875 176.546875 C 204.578125 175.007812 204.601562 173.46875 204.753906 171.929688 C 204.894531 170.808594 205.113281 169.699219 205.417969 168.609375 C 205.617188 167.921875 205.851562 167.226562 206.117188 166.515625 C 206.191406 166.269531 206.28125 166.023438 206.382812 165.785156 C 206.453125 165.671875 206.53125 165.558594 206.617188 165.453125 C 206.648438 165.421875 206.648438 165.355469 206.683594 165.320312 L 207.214844 164.65625 L 207.3125 164.425781 C 207.597656 164.027344 207.839844 163.605469 208.042969 163.164062 C 208.734375 161.664062 209.121094 160.09375 209.207031 158.445312 C 209.273438 157.449219 209.304688 156.453125 209.339844 155.457031 C 209.421875 154.25 209.421875 153.042969 209.339844 151.835938 C 209.289062 150.8125 208.910156 149.925781 208.210938 149.179688 C 207.511719 148.480469 206.484375 148.25 205.519531 148.082031 L 204.820312 147.984375 L 204.820312 147.917969 C 204.90625 146.714844 204.804688 145.53125 204.523438 144.363281 C 204.257812 143 204.125 141.539062 203.726562 140.210938 C 203.28125 138.855469 202.503906 137.726562 201.402344 136.824219 C 200.105469 135.726562 198.511719 135.09375 196.949219 134.597656 C 195.929688 134.277344 194.890625 134.054688 193.828125 133.933594 L 193.792969 133.933594 C 193.195312 132.804688 192.332031 132.007812 191.402344 131.109375 C 190.441406 130.136719 189.355469 129.328125 188.148438 128.683594 C 185.921875 127.523438 183.132812 127.089844 181.207031 125.398438 C 180.714844 124.984375 180.316406 124.5 180.011719 123.933594 C 180.011719 123.902344 179.976562 123.867188 179.976562 123.835938 C 180.636719 123.964844 181.300781 124.042969 181.96875 124.066406 C 182.976562 124.164062 183.984375 124.207031 184.992188 124.199219 C 186.886719 124.265625 188.8125 124.265625 190.738281 124.199219 C 191.730469 124.148438 192.71875 124.214844 193.695312 124.398438 C 195.066406 124.746094 196.339844 125.308594 197.515625 126.09375 C 198.410156 126.652344 199.253906 127.28125 200.039062 127.988281 C 200.84375 128.730469 201.683594 129.429688 202.5625 130.078125 L 202.761719 130.34375 C 203.0625 130.710938 203.128906 129.714844 203.0625 129.582031 C 201.800781 126.757812 199.574219 123.800781 196.71875 122.507812 C 195.054688 121.8125 193.339844 121.300781 191.570312 120.980469 C 189.667969 120.589844 187.753906 120.304688 185.824219 120.117188 C 184.925781 120.050781 183.996094 119.949219 183.066406 119.917969 L 181.703125 119.851562 C 181.238281 119.851562 181.039062 120.117188 180.675781 120.414062 C 179.679688 121.3125 179.113281 122.441406 179.378906 123.769531 C 180.011719 126.757812 183.066406 127.789062 185.625 128.617188 C 187.214844 129.136719 188.6875 129.890625 190.039062 130.878906 C 190.835938 131.425781 191.53125 132.082031 192.132812 132.835938 C 192.429688 133.175781 192.707031 133.53125 192.964844 133.898438 L 192.597656 133.832031 C 192 133.734375 191.371094 133.699219 190.738281 133.632812 C 189.542969 133.511719 188.359375 133.324219 187.183594 133.070312 C 186.199219 132.828125 185.257812 132.472656 184.359375 132.007812 C 183.914062 131.753906 183.484375 131.476562 183.066406 131.175781 L 182.433594 130.679688 L 181.871094 130.277344 C 181.539062 129.980469 181.503906 130.84375 181.605469 131.011719 C 181.890625 131.527344 182.246094 131.992188 182.667969 132.40625 C 183.113281 132.796875 183.601562 133.128906 184.128906 133.402344 C 185.144531 133.964844 186.21875 134.375 187.351562 134.628906 C 188.710938 134.917969 190.082031 135.105469 191.46875 135.195312 C 191.996094 135.273438 192.527344 135.308594 193.0625 135.292969 L 193.097656 135.292969 L 194.257812 135.527344 C 195.632812 135.726562 196.972656 136.058594 198.277344 136.523438 C 199.671875 137.054688 201.101562 137.820312 202.066406 138.980469 C 203.027344 140.144531 203.261719 140.640625 203.425781 141.507812 C 203.726562 143.132812 204.15625 144.761719 204.355469 146.386719 C 204.40625 146.902344 204.375 147.414062 204.257812 147.917969 C 199.539062 147.285156 194.589844 147.417969 190.105469 149.046875 C 188 149.8125 186.074219 150.894531 184.328125 152.300781 C 182.632812 153.664062 180.941406 155.421875 180.308594 157.550781 C 180.148438 158.019531 180.058594 158.5 180.042969 158.996094 C 180.027344 159.492188 180.089844 159.976562 180.222656 160.457031 C 180.355469 160.933594 180.558594 161.378906 180.828125 161.796875 C 181.097656 162.214844 181.421875 162.578125 181.804688 162.898438 C 183.398438 164.257812 185.589844 164.722656 187.648438 164.492188 C 192.332031 163.960938 195.886719 160.238281 198.875 156.949219 C 200.628906 155.058594 202.222656 153.046875 203.660156 150.90625 C 203.988281 150.414062 204.265625 149.894531 204.488281 149.34375 L 205.085938 149.445312 C 206.050781 149.578125 207.082031 149.710938 207.878906 150.339844 C 208.675781 150.972656 208.875 152.300781 208.839844 153.464844 C 208.808594 154.625 208.808594 155.554688 208.742188 156.617188 C 208.71875 158.144531 208.5 159.636719 208.078125 161.101562 C 207.832031 161.820312 207.5 162.496094 207.082031 163.128906 C 206.871094 163.476562 206.636719 163.808594 206.382812 164.125 C 206.320312 164.164062 206.277344 164.222656 206.25 164.292969 C 206.136719 164.316406 206.058594 164.382812 206.015625 164.492188 L 205.816406 164.757812 L 205.351562 165.1875 C 202.921875 167.425781 200.199219 169.21875 197.183594 170.570312 L 195.386719 171.433594 L 193.03125 171.863281 C 187.851562 172.75 182.636719 173.304688 177.386719 173.527344 C 173.710938 173.746094 170.035156 173.734375 166.359375 173.492188 C 164.566406 173.359375 162.769531 173.125 161.011719 172.859375 C 160.148438 172.726562 159.316406 172.59375 158.453125 172.394531 C 157.589844 172.195312 156.328125 171.929688 155.796875 170.96875 C 155.265625 170.003906 155.199219 168.875 155.066406 167.878906 C 154.964844 166.730469 154.933594 165.578125 154.964844 164.425781 C 155.105469 162.175781 155.359375 159.9375 155.730469 157.714844 C 155.863281 156.652344 156.027344 155.554688 156.128906 154.492188 C 156.136719 154.851562 156.183594 155.207031 156.261719 155.554688 C 156.691406 157.75 158.1875 159.011719 160.214844 159.742188 C 162.238281 160.472656 164.566406 160.902344 166.625 160.605469 C 168.457031 160.40625 170.226562 159.960938 171.9375 159.277344 C 171.992188 159.230469 172.023438 159.175781 172.039062 159.109375 L 172.769531 159.742188 C 173.035156 160.007812 173.066406 159.210938 172.933594 159.042969 C 172.269531 158.148438 171.738281 157.117188 171.074219 156.1875 L 169.214844 153.5625 C 168.746094 152.820312 168.148438 152.199219 167.421875 151.703125 C 166.757812 151.316406 166.050781 151.050781 165.296875 150.90625 L 166.027344 150.574219 C 166.902344 150.121094 167.6875 149.546875 168.382812 148.847656 C 169.066406 148.167969 169.609375 147.394531 170.011719 146.523438 C 170.085938 146.347656 170.175781 146.183594 170.277344 146.023438 L 170.410156 145.890625 C 171.066406 145.941406 171.640625 145.753906 172.136719 145.324219 C 172.753906 144.875 173.140625 144.277344 173.300781 143.53125 C 173.398438 143.066406 173.367188 142.371094 172.800781 142.238281 C 172.238281 142.105469 170.976562 142.703125 170.542969 143.300781 C 170.265625 143.769531 170.121094 144.28125 170.113281 144.828125 L 169.78125 144.660156 C 169.316406 144.363281 169.316406 144.03125 169.117188 143.566406 C 168.582031 142.46875 167.421875 141.738281 166.226562 142.269531 C 165.792969 142.4375 165.496094 142.800781 165.0625 142.933594 C 164.234375 143.164062 163.40625 143.175781 162.570312 142.96875 C 160.679688 142.503906 158.917969 141.007812 159.78125 138.914062 C 160.246094 137.894531 160.933594 137.050781 161.839844 136.390625 C 163.667969 134.996094 165.195312 133.167969 166.691406 131.441406 C 168.183594 129.714844 168.949219 128.851562 169.746094 127.257812 C 170.601562 125.632812 171.089844 123.90625 171.207031 122.074219 C 171.34375 121.949219 171.398438 121.792969 171.375 121.609375 C 171.199219 119.75 170.707031 117.980469 169.902344 116.296875 C 169.097656 114.609375 168.027344 113.117188 166.691406 111.8125 C 166.242188 111.367188 165.710938 111.066406 165.097656 110.914062 C 165.839844 107.785156 167.109375 104.886719 168.914062 102.21875 C 170.714844 99.554688 172.929688 97.292969 175.558594 95.4375 C 176.804688 94.574219 178.109375 93.820312 179.480469 93.179688 C 179.777344 93.011719 179.644531 91.882812 179.3125 92.046875 C 177.570312 92.867188 175.9375 93.863281 174.410156 95.039062 C 172.882812 96.210938 171.5 97.535156 170.261719 99.007812 C 169.023438 100.484375 167.957031 102.070312 167.0625 103.777344 C 166.171875 105.484375 165.46875 107.265625 164.964844 109.121094 C 164.800781 109.699219 164.667969 110.289062 164.566406 110.882812 C 164.269531 110.875 163.992188 110.949219 163.734375 111.097656 C 163.476562 111.246094 163.277344 111.453125 163.136719 111.710938 C 162.671875 112.441406 162.871094 114.167969 163.835938 114.402344 C 163.960938 115.667969 163.875 116.921875 163.570312 118.15625 C 163.289062 119.378906 162.921875 120.574219 162.472656 121.742188 C 161.476562 124.035156 160.246094 126.226562 159.117188 128.453125 C 157.988281 130.679688 156.792969 132.769531 155.828125 134.996094 C 154.871094 137.125 154.507812 139.347656 154.734375 141.671875 C 154.933594 144.128906 155.53125 146.554688 155.597656 149.046875 C 155.589844 151.386719 155.402344 153.710938 155.03125 156.019531 C 154.402344 160.570312 153.570312 165.222656 154.433594 169.773438 C 154.601562 170.769531 154.832031 171.765625 155.464844 172.5625 C 156.09375 173.359375 156.992188 173.691406 157.953125 173.925781 C 159.699219 174.324219 161.457031 174.625 163.234375 174.820312 C 166.972656 175.152344 170.714844 175.253906 174.464844 175.121094 C 180.410156 174.941406 186.320312 174.402344 192.199219 173.492188 C 193.527344 173.292969 194.890625 173.160156 196.1875 172.894531 C 197.808594 172.511719 199.34375 171.902344 200.785156 171.0625 C 202.226562 170.226562 203.515625 169.199219 204.65625 167.980469 C 204.46875 168.578125 204.3125 169.1875 204.191406 169.804688 C 203.835938 171.558594 203.683594 173.332031 203.726562 175.121094 C 203.773438 177.257812 204.105469 179.351562 204.722656 181.398438 C 206.046875 185.671875 208.027344 189.613281 210.667969 193.222656 C 211.265625 194.050781 211.898438 194.851562 212.527344 195.648438 C 213.160156 196.445312 213.589844 197.074219 214.1875 197.738281 C 214.785156 198.402344 216.3125 199.863281 217.378906 200.929688 C 218.558594 202.039062 219.632812 203.246094 220.597656 204.546875 C 221.359375 205.679688 222.023438 206.863281 222.59375 208.101562 C 216.878906 201.195312 209.835938 195.480469 201.699219 191.695312 C 197.117188 189.597656 192.355469 188.046875 187.417969 187.042969 C 179.777344 185.449219 171.175781 184.851562 163.96875 188.273438 C 156.757812 191.695312 151.378906 200.03125 153.539062 208.234375 C 154.167969 210.726562 155.296875 213.085938 156.394531 215.410156 C 157.488281 217.734375 158.519531 219.960938 159.417969 222.320312 C 161.261719 227.023438 162.691406 231.847656 163.703125 236.800781 C 164 238.296875 164.300781 239.824219 164.53125 241.351562 C 164.597656 241.882812 165.859375 241.582031 165.792969 240.984375 C 164.941406 235.675781 163.65625 230.472656 161.941406 225.375 C 160.378906 220.855469 158.253906 216.605469 156.359375 212.222656 C 155.398438 210.0625 154.566406 207.804688 154.335938 205.445312 C 154.097656 202.894531 154.519531 200.460938 155.597656 198.136719 C 157.050781 194.925781 159.230469 192.324219 162.140625 190.332031 C 168.648438 185.949219 177.285156 186.214844 184.691406 187.507812 C 189.679688 188.363281 194.507812 189.769531 199.175781 191.726562 C 206.914062 194.984375 213.789062 200.066406 219.402344 206.277344 C 220.398438 207.371094 221.328125 208.5 222.257812 209.628906 C 222.558594 210.027344 223.621094 209.664062 223.457031 209.199219 Z M 180.839844 121.445312 C 181.113281 121.132812 181.457031 120.976562 181.871094 120.980469 C 182.28125 120.96875 182.691406 120.988281 183.097656 121.046875 L 185.855469 121.34375 C 187.523438 121.542969 189.171875 121.84375 190.804688 122.242188 C 192.523438 122.585938 194.21875 123.03125 195.886719 123.570312 C 197.523438 124.128906 198.894531 125.070312 200.003906 126.394531 L 200.070312 126.460938 C 199.5625 126.03125 199.03125 125.632812 198.476562 125.265625 C 197.25 124.402344 195.921875 123.75 194.492188 123.304688 C 191.800781 122.507812 189.042969 122.773438 186.253906 122.671875 C 185.058594 122.640625 183.863281 122.539062 182.667969 122.441406 L 181.140625 122.375 C 180.773438 122.339844 180.441406 122.273438 180.078125 122.273438 C 180.296875 121.964844 180.550781 121.6875 180.839844 121.445312 Z M 201.136719 152.832031 C 198.445312 156.152344 195.421875 159.640625 191.636719 161.734375 C 189.875 162.699219 187.914062 163.296875 185.890625 163.128906 C 183.863281 162.964844 181.671875 162.03125 180.808594 160.171875 C 179.945312 158.3125 182.167969 155.6875 183.53125 154.425781 C 184.976562 153.0625 186.605469 151.964844 188.414062 151.136719 C 192.53125 149.179688 197.148438 148.679688 201.667969 149.011719 L 203.757812 149.210938 C 203.09375 150.539062 202 151.734375 201.136719 152.832031 Z M 170.34375 158.84375 C 169.554688 159.179688 168.734375 159.410156 167.886719 159.542969 C 166.027344 159.875 164.035156 159.640625 162.207031 159.242188 C 160.378906 158.84375 158.519531 158.3125 157.488281 156.851562 C 157.023438 156.21875 156.59375 155.324219 156.660156 154.527344 C 156.671875 154.175781 156.804688 153.875 157.058594 153.628906 C 157.289062 153.398438 157.65625 153.332031 157.921875 153.132812 C 158.417969 153.496094 158.949219 153.792969 159.515625 154.027344 C 161.042969 154.625 162.636719 154.890625 164.234375 155.289062 C 166.785156 155.878906 169.121094 156.941406 171.242188 158.480469 Z M 169.214844 154.824219 C 169.746094 155.589844 170.277344 156.320312 170.777344 157.082031 C 169.140625 155.734375 167.304688 154.769531 165.261719 154.195312 C 163.601562 153.761719 161.875 153.628906 160.246094 153.066406 C 159.578125 152.867188 158.933594 152.601562 158.320312 152.269531 C 158.023438 152.070312 157.65625 151.601562 157.289062 151.4375 C 158.320312 150.308594 159.714844 149.113281 161.242188 150.042969 C 161.90625 150.40625 162.4375 150.972656 163.136719 151.304688 C 163.8125 151.601562 164.511719 151.835938 165.230469 152.003906 C 166.082031 152.121094 166.863281 152.429688 167.566406 152.929688 C 168.269531 153.425781 168.820312 154.058594 169.214844 154.824219 Z M 170.609375 144.761719 C 170.75 144.246094 171.035156 143.835938 171.472656 143.53125 C 171.800781 143.292969 172.164062 143.171875 172.570312 143.167969 C 172.601562 143.167969 172.96875 143.199219 172.933594 143.132812 C 172.902344 143.066406 172.734375 143.632812 172.703125 143.664062 C 172.574219 144.003906 172.363281 144.289062 172.078125 144.515625 C 171.792969 144.742188 171.46875 144.878906 171.109375 144.925781 L 170.609375 144.925781 Z M 165.128906 111.945312 C 166.324219 112.175781 167.222656 113.472656 167.917969 114.371094 C 169.082031 115.921875 169.933594 117.625 170.476562 119.484375 C 169.082031 117.191406 166.824219 115.5 164.597656 113.96875 C 164.664062 113.277344 164.761719 112.59375 164.898438 111.910156 Z M 163.703125 112.242188 C 163.894531 112.082031 164.117188 111.980469 164.367188 111.945312 L 164.167969 113.371094 C 164.023438 113.390625 163.890625 113.367188 163.765625 113.292969 C 163.640625 113.222656 163.550781 113.121094 163.496094 112.988281 C 163.441406 112.855469 163.433594 112.71875 163.472656 112.582031 C 163.511719 112.441406 163.585938 112.328125 163.703125 112.242188 Z M 156.027344 136.757812 C 156.859375 134.496094 158.054688 132.339844 159.117188 130.179688 C 160.179688 128.019531 161.308594 125.796875 162.304688 123.570312 C 163.300781 121.34375 164.132812 119.515625 164.398438 117.257812 C 164.488281 116.550781 164.507812 115.84375 164.464844 115.132812 C 167.121094 116.859375 169.8125 118.785156 170.910156 121.875 C 170.910156 121.910156 170.910156 121.941406 170.941406 121.941406 C 170.3125 126.0625 167.621094 129.515625 164.832031 132.4375 C 163.902344 133.367188 162.96875 134.296875 161.972656 135.128906 C 161.179688 135.714844 160.515625 136.425781 159.980469 137.253906 C 159.085938 138.75 158.71875 140.839844 159.949219 142.238281 C 161.175781 143.632812 163.070312 144.0625 164.765625 143.832031 C 164.988281 143.828125 165.199219 143.773438 165.394531 143.664062 C 165.695312 143.53125 165.894531 143.300781 166.191406 143.199219 C 166.414062 143.121094 166.644531 143.078125 166.882812 143.078125 C 167.121094 143.078125 167.351562 143.113281 167.574219 143.195312 C 167.800781 143.273438 168.003906 143.386719 168.1875 143.535156 C 168.371094 143.683594 168.527344 143.859375 168.648438 144.0625 C 169.082031 144.761719 168.984375 145.425781 169.878906 145.757812 L 169.945312 145.757812 L 169.679688 146.289062 C 169.214844 147.058594 168.652344 147.746094 167.984375 148.347656 C 167.332031 148.933594 166.613281 149.421875 165.828125 149.808594 C 165.4375 149.984375 165.039062 150.128906 164.632812 150.242188 C 164.304688 150.308594 163.984375 150.398438 163.667969 150.507812 C 163.339844 150.433594 163.027344 150.3125 162.738281 150.140625 C 162.039062 149.777344 161.476562 149.179688 160.710938 148.980469 C 159.117188 148.582031 157.820312 150.140625 156.957031 151.238281 C 156.894531 151.394531 156.917969 151.539062 157.023438 151.667969 C 157.054688 151.898438 157.128906 152.109375 157.257812 152.300781 C 156.882812 152.515625 156.59375 152.816406 156.394531 153.199219 C 156.320312 153.378906 156.261719 153.570312 156.226562 153.761719 C 156.328125 152.800781 156.394531 151.871094 156.425781 150.9375 C 156.503906 148.625 156.316406 146.332031 155.863281 144.0625 C 155.398438 141.574219 155.132812 139.214844 156.027344 136.757812 Z M 156.027344 136.757812 " fill-opacity="1" fill-rule="nonzero"/></g></svg>